<svg width="24" height="24" viewBox="0 0 24 24" fill="none" xmlns="http://www.w3.org/2000/svg">
<path d="M21.0664 2H2.93359C1.86363 2 1 2.86363 1 3.93359V15.5352C1 16.6051 1.86363 17.4688 2.93359 17.4688H10.0664L12 18.7578L13.9336 17.4688H21.0664C22.1364 17.4688 23 16.6051 23 15.5352V3.93359C23 2.86363 22.1364 2 21.0664 2Z" fill="#2196F3"/>
<g clip-path="url(#clip0_202_5558)">
<path d="M15.4248 11.9734H17.7776C18.132 11.9734 18.4193 11.6861 18.4193 11.3317C18.4193 7.78778 15.5463 4.91504 12.0026 4.91504C8.45889 4.91504 5.58594 7.78778 5.58594 11.3317C5.58594 11.6861 5.87319 11.9734 6.2276 11.9734H8.58038V10.69H6.91055C7.22647 8.15802 9.38503 6.19837 12.0026 6.19837C14.6202 6.19837 16.7787 8.15802 17.0947 10.69H15.4248V11.9734Z" fill="#E9F4FE"/>
<path d="M10.8238 8.33727C11.1191 8.33727 11.3585 8.09786 11.3585 7.80254C11.3585 7.50723 11.1191 7.26782 10.8238 7.26782C10.5285 7.26782 10.2891 7.50723 10.2891 7.80254C10.2891 8.09786 10.5285 8.33727 10.8238 8.33727Z" fill="#E9F4FE"/>
<path d="M9.11285 9.40685C9.40816 9.40685 9.64757 9.16744 9.64757 8.87212C9.64757 8.57681 9.40816 8.3374 9.11285 8.3374C8.81753 8.3374 8.57812 8.57681 8.57812 8.87212C8.57812 9.16744 8.81753 9.40685 9.11285 9.40685Z" fill="#E9F4FE"/>
<path d="M14.7807 8.97878C14.7807 8.86071 14.6849 8.76489 14.5668 8.76489C14.5155 8.76489 14.4702 8.78543 14.4334 8.81558L10.9108 11.7232C10.531 12.037 10.2891 12.5116 10.2891 13.0427C10.2891 13.9876 11.0552 14.7538 12.0002 14.7538C12.8008 14.7538 13.4711 14.203 13.6578 13.4604L14.7707 9.02883C14.7747 9.01236 14.7807 8.99653 14.7807 8.97878Z" fill="#E9F4FE"/>
</g>
<path d="M15.875 20.0469H13.9414V17.4688H10.0742V20.0469H8.14062C7.77964 20.0469 7.49609 20.3304 7.49609 20.6914C7.49609 21.0524 7.77964 21.3359 8.14062 21.3359H15.875C16.236 21.3359 16.5195 21.0524 16.5195 20.6914C16.5195 20.3304 16.236 20.0469 15.875 20.0469Z" fill="url(#paint0_linear_202_5558)"/>
<defs>
<linearGradient id="paint0_linear_202_5558" x1="12.0078" y1="14.8906" x2="12.0078" y2="4.57812" gradientUnits="userSpaceOnUse">
<stop stop-color="#ADDCFF"/>
<stop offset="0.5028" stop-color="#EAF6FF"/>
<stop offset="1" stop-color="#EAF6FF"/>
</linearGradient>
<clipPath id="clip0_202_5558">
<rect width="12.8333" height="12.8333" fill="white" transform="translate(5.58594 4.33447)"/>
</clipPath>
</defs>
</svg>
