<svg width="331" height="110" viewBox="0 0 331 110" fill="none" xmlns="http://www.w3.org/2000/svg">
<path d="M330.57 0H0V109.28H330.57V0Z" fill="none"/>
<path d="M57.9963 31.0071C44.7687 31.0071 34 41.7688 34 55.0036C34 58.6383 34.8196 62.0878 36.2735 65.1808L39.7799 61.6744C39.0173 59.5933 38.604 57.3483 38.604 55.0036C38.604 44.2918 47.2917 35.604 58.0034 35.604C58.3241 35.604 58.6519 35.6111 58.9655 35.6254C59.0867 35.6254 59.2078 35.6468 59.329 35.6539C59.5214 35.6682 59.7138 35.6824 59.9063 35.6967C60.0631 35.7109 60.2198 35.7323 60.3695 35.7537C60.5263 35.7751 60.676 35.7893 60.8328 35.8107C61.0109 35.8392 61.1891 35.8677 61.3602 35.8962C61.4884 35.9176 61.6167 35.939 61.7379 35.9604C61.9303 35.996 62.1227 36.0388 62.3152 36.0886C62.4149 36.11 62.5218 36.1314 62.6216 36.1599C62.8283 36.2098 63.035 36.2668 63.2417 36.3238C63.32 36.3452 63.3984 36.3666 63.4768 36.388C63.7049 36.4521 63.9258 36.5234 64.1468 36.6018C64.2038 36.6232 64.2608 36.6374 64.3178 36.6588C64.5601 36.7443 64.7953 36.8298 65.0305 36.9225L65.1231 36.9581C65.3797 37.0579 65.6363 37.1648 65.8857 37.2788H65.9C70.7391 39.4526 74.5235 43.5434 76.291 48.5822C76.3908 48.8601 76.4834 49.1452 76.5618 49.4303V49.4517C76.6473 49.7296 76.7257 50.0147 76.797 50.2998C77.0108 51.1764 77.1747 52.0744 77.2674 52.9866L81.8286 57.5479C81.9212 56.7069 81.964 55.8588 81.964 54.9964C81.964 41.7688 71.2024 31 57.9677 31L57.9963 31.0071Z" fill="#04ABFF"/>
<path d="M63.9971 73.441H63.9757C63.5267 73.5978 63.0635 73.726 62.6002 73.8401C62.5503 73.8543 62.5005 73.8615 62.4506 73.8757C62.0158 73.9755 61.574 74.0681 61.1321 74.1394C61.1036 74.1394 61.068 74.1537 61.0394 74.1537C60.5905 74.2249 60.1415 74.2748 59.6782 74.3176C59.5784 74.3247 59.4787 74.3318 59.386 74.339C58.9228 74.3746 58.4666 74.396 57.9963 74.396C57.5758 74.396 57.1624 74.3746 56.7491 74.3532C56.6422 74.3532 56.5353 74.339 56.4212 74.3318C56.072 74.3033 55.7299 74.2677 55.3878 74.2249C55.3166 74.2178 55.2524 74.2107 55.1811 74.1964C54.7607 74.1323 54.3473 74.061 53.9339 73.9755C53.8983 73.9684 53.8627 73.9612 53.8342 73.9541C53.4422 73.8686 53.0573 73.7688 52.6725 73.6619C52.6297 73.6477 52.5941 73.6405 52.5513 73.6263C47.4271 72.1296 43.1866 68.5804 40.7706 63.9336L37.3995 67.3047C41.5973 74.3033 49.2587 79 57.9963 79C69.3922 79 78.9493 71.0107 81.3867 60.3416L77.3458 56.3007C76.8113 64.347 71.3806 71.0463 63.9971 73.4481V73.441Z" fill="#04ABFF"/>
<path d="M81.3867 60.3345L68.43 47.3777L57.9962 57.8115L47.5625 47.3777L34.6058 60.3345C34.9906 62.0164 35.5465 63.6343 36.2592 65.1594H36.2663L47.5553 53.8703L57.9891 64.3042L68.4229 53.8703L79.719 65.1666C80.4388 63.6414 80.9947 62.0236 81.3796 60.3416V60.3274L81.3867 60.3345Z" fill="#032BA5"/>
<path d="M223.739 77V32.2H233.275L246.331 51.528L259.387 32.2H268.859V77H260.155V45.896L246.331 66.248L232.507 45.96V77H223.739Z" fill="#032BA5"/>
<path d="M199.904 77.768C197.643 77.768 195.531 77.4907 193.568 76.936C191.605 76.3813 189.856 75.6133 188.32 74.632C186.784 73.608 185.504 72.4773 184.48 71.24C183.499 70.0027 182.859 68.7013 182.56 67.336L191.136 64.776C191.691 66.2267 192.672 67.4853 194.08 68.552C195.488 69.576 197.259 70.1093 199.392 70.152C201.653 70.1947 203.488 69.704 204.896 68.68C206.347 67.656 207.072 66.3333 207.072 64.712C207.072 63.304 206.496 62.1307 205.344 61.192C204.235 60.2107 202.699 59.464 200.736 58.952L194.912 57.416C192.736 56.8613 190.816 56.0293 189.152 54.92C187.488 53.768 186.187 52.36 185.248 50.696C184.309 49.032 183.84 47.0907 183.84 44.872C183.84 40.648 185.227 37.3627 188 35.016C190.816 32.6267 194.784 31.432 199.904 31.432C202.763 31.432 205.259 31.8587 207.392 32.712C209.568 33.5227 211.381 34.696 212.832 36.232C214.283 37.768 215.392 39.5813 216.16 41.672L207.648 44.296C207.136 42.8453 206.197 41.608 204.832 40.584C203.467 39.56 201.739 39.048 199.648 39.048C197.515 39.048 195.829 39.5387 194.592 40.52C193.397 41.5013 192.8 42.888 192.8 44.68C192.8 46.088 193.269 47.1973 194.208 48.008C195.189 48.8187 196.512 49.4373 198.176 49.864L204.064 51.336C207.904 52.2747 210.891 53.96 213.024 56.392C215.157 58.824 216.224 61.5333 216.224 64.52C216.224 67.1653 215.584 69.4907 214.304 71.496C213.024 73.4587 211.168 74.9947 208.736 76.104C206.304 77.2133 203.36 77.768 199.904 77.768Z" fill="#032BA5"/>
<path d="M127.427 77V32.2H144.067C147.224 32.2 150.019 32.8186 152.451 34.056C154.883 35.2933 156.781 37 158.147 39.176C159.512 41.3093 160.195 43.8053 160.195 46.664C160.195 49.48 159.469 51.9973 158.019 54.216C156.611 56.392 154.669 58.0986 152.195 59.336C149.72 60.5306 146.904 61.128 143.747 61.128H136.195V77H127.427ZM152.067 77L141.699 59.016L148.419 54.216L161.987 77H152.067ZM136.195 53.128H144.131C145.453 53.128 146.627 52.8506 147.651 52.296C148.717 51.7413 149.549 50.9733 150.147 49.992C150.787 49.0106 151.107 47.9013 151.107 46.664C151.107 44.744 150.403 43.1866 148.995 41.992C147.629 40.7973 145.859 40.2 143.683 40.2H136.195V53.128Z" fill="#032BA5"/>
<path d="M88.864 77V32.2H105.504C108.661 32.2 111.456 32.84 113.888 34.12C116.32 35.3573 118.219 37.1066 119.584 39.368C120.949 41.5866 121.632 44.168 121.632 47.112C121.632 50.0133 120.971 52.5946 119.648 54.856C118.325 57.1173 116.512 58.9093 114.208 60.232C111.904 61.512 109.237 62.152 106.208 62.152H97.632V77H88.864ZM97.632 54.088H106.016C107.979 54.088 109.579 53.448 110.816 52.168C112.096 50.8453 112.736 49.16 112.736 47.112C112.736 45.064 112.032 43.4 110.624 42.12C109.259 40.84 107.488 40.2 105.312 40.2H97.632V54.088Z" fill="#032BA5"/>
<path d="M168 77V46H176V77H168Z" fill="#032BA5"/>
<path d="M172.12 43.304C170.712 43.304 169.496 42.792 168.472 41.768C167.491 40.744 167 39.528 167 38.12C167 36.7547 167.491 35.56 168.472 34.536C169.496 33.512 170.712 33 172.12 33C173.528 33 174.723 33.512 175.704 34.536C176.728 35.56 177.24 36.7547 177.24 38.12C177.24 39.528 176.728 40.744 175.704 41.768C174.723 42.792 173.528 43.304 172.12 43.304Z" fill="#04ABFF"/>
</svg>
