<svg width="20" height="20" viewBox="0 0 20 20" fill="none" xmlns="http://www.w3.org/2000/svg">
<path fill-rule="evenodd" clip-rule="evenodd" d="M8.45938 13.2337C8.1793 13.163 7.90352 13.0708 7.63555 12.9568L7.45625 13.4552L8.27461 13.7486L8.45938 13.2337ZM6.58125 13.64L8.81133 14.4396L7.19141 18.9607C7.05078 19.3548 6.61328 19.5607 6.21914 19.42L5.41953 19.1333C5.02656 18.9927 4.81953 18.5552 4.96094 18.1622L6.58125 13.64ZM15.8105 3.63566H13.8852C13.8652 3.61457 13.8441 3.59465 13.823 3.57472C13.6715 3.42863 13.5129 3.2923 13.3492 3.16613H15.8105C15.9402 3.16613 16.0453 3.27121 16.0453 3.4009C16.0453 3.53058 15.9402 3.63566 15.8105 3.63566ZM15.8328 10.9427C15.8328 11.0724 15.7277 11.1775 15.5992 11.1775H14.3969C14.5141 11.0259 14.6227 10.8685 14.7223 10.7091H15.5992C15.7277 10.7091 15.8328 10.8134 15.8328 10.9427ZM16.6078 11.9185C16.7375 11.9185 16.8426 12.0224 16.8426 12.1521C16.8426 12.2818 16.7375 12.3868 16.6078 12.3868H13.1297C13.3324 12.245 13.5281 12.0888 13.7156 11.9185H16.6078ZM15.8328 4.42433C15.8328 4.55402 15.7277 4.6591 15.5992 4.6591H14.7066C14.6059 4.49855 14.4961 4.3423 14.3789 4.19074H15.5992C15.7277 4.19074 15.8328 4.29582 15.8328 4.42433ZM14.4422 1.95715C14.2012 1.89191 14.0211 1.71222 13.9453 1.4923C13.9402 1.49269 13.9355 1.49308 13.9305 1.49308H12.6516L12.366 2.55715C12.223 2.48722 12.0793 2.42433 11.932 2.36769L12.2453 1.19738C12.2742 1.09347 12.3684 1.02472 12.4723 1.02472V1.02355H13.9305C13.9355 1.02355 13.9406 1.02394 13.9457 1.02433C14.0684 0.667692 14.4469 0.461052 14.8164 0.560661C15.202 0.663786 15.4309 1.05988 15.327 1.44543C15.2238 1.83097 14.8273 2.06027 14.4422 1.95715ZM17.134 9.94816L16.8031 8.71261H15.4887C15.5164 8.55754 15.5387 8.40129 15.5527 8.24426H16.9832C17.0961 8.24426 17.1902 8.32394 17.2125 8.43019L17.6102 9.91418C17.9176 9.99738 18.1438 10.2771 18.1438 10.6103C18.1438 11.0099 17.8203 11.3333 17.4207 11.3333C17.0223 11.3333 16.6977 11.0099 16.6977 10.6103C16.6977 10.3138 16.8773 10.0591 17.134 9.94816ZM17.6074 5.48801L17.2125 6.96418C17.1902 7.07043 17.0961 7.15011 16.9832 7.15011H15.5527C15.5383 6.99386 15.516 6.83683 15.4887 6.68176H16.8027L17.1367 5.43722C16.8918 5.3216 16.7219 5.07316 16.7219 4.78371C16.7219 4.3841 17.0453 4.06066 17.4449 4.06066C17.8434 4.06066 18.168 4.3841 18.168 4.78371C18.168 5.12785 17.9281 5.41418 17.6074 5.48801ZM5.84727 3.63566H4.16406C4.03438 3.63566 3.9293 3.53058 3.9293 3.4009C3.9293 3.27121 4.03438 3.16613 4.16406 3.16613H6.38203C6.19727 3.31027 6.01797 3.46652 5.84727 3.63566ZM4.13437 11.1775C4.00469 11.1775 3.89961 11.0724 3.89961 10.9427C3.89961 10.813 4.00469 10.7091 4.13437 10.7091H5.01015C5.10976 10.8696 5.21836 11.0259 5.33555 11.1775H4.13437ZM4.13437 4.19074H5.35469C5.23633 4.3423 5.12656 4.49855 5.02578 4.6591H4.13437C4.00469 4.6591 3.89961 4.55402 3.89961 4.42433C3.89961 4.29582 4.00469 4.19074 4.13437 4.19074ZM3.12461 11.9185H6.0168C6.20391 12.0892 6.4 12.245 6.60352 12.3868H3.12461C2.99492 12.3868 2.89101 12.2818 2.89101 12.1521C2.89101 12.0224 2.99492 11.9185 3.12461 11.9185ZM2.38164 9.91027C2.37891 9.88332 2.38086 9.85558 2.38828 9.82785L2.7625 8.43058C2.78477 8.32433 2.87969 8.24465 2.99297 8.24465H4.18008C4.1957 8.40168 4.2168 8.55793 4.24531 8.71301H3.17227L2.84141 9.94855C3.09766 10.0595 3.27773 10.3142 3.27773 10.6111C3.27773 11.0107 2.95312 11.3341 2.55469 11.3341C2.15508 11.3341 1.83164 11.0107 1.83164 10.6111C1.83125 10.2716 2.06562 9.98761 2.38164 9.91027ZM2.84141 5.44738L3.17227 6.68176H4.24414C4.21641 6.83683 4.19414 6.99386 4.18008 7.15011H2.99297C2.88008 7.15011 2.78477 7.07043 2.7625 6.96418L2.38828 5.56691C2.38086 5.53957 2.3793 5.51222 2.38164 5.48566C2.06562 5.40832 1.83125 5.12433 1.83125 4.7841C1.83125 4.38449 2.15469 4.06105 2.5543 4.06105C2.95273 4.06105 3.27734 4.38449 3.27734 4.7841C3.27734 5.08136 3.09766 5.33644 2.84141 5.44738ZM7.15156 1.49308H5.87148C5.8668 1.49308 5.86211 1.49269 5.85781 1.4923C5.78242 1.71222 5.60234 1.89191 5.36133 1.95715C4.975 2.06027 4.57851 1.83097 4.47539 1.44543C4.37226 1.06027 4.60039 0.663786 4.98711 0.560661C5.35625 0.461052 5.73516 0.667692 5.85664 1.02433C5.86172 1.02394 5.8668 1.02355 5.87187 1.02355H7.33125V1.02472C7.43438 1.02472 7.5293 1.09347 7.55703 1.19738L7.86367 2.34347C7.71758 2.39894 7.57149 2.45988 7.42852 2.52746L7.15156 1.49308ZM6.23359 11.4798C8.32305 13.4853 11.6437 13.4177 13.6492 11.3282C15.6555 9.23996 15.5879 5.91808 13.4984 3.91261C11.4102 1.90715 8.08828 1.97472 6.08281 4.0634C4.07773 6.15285 4.14531 9.47355 6.23359 11.4798Z" fill="#6A798F"/>
</svg>
