<svg width="40" height="40" viewBox="0 0 40 40" fill="none" xmlns="http://www.w3.org/2000/svg">
<path d="M25.0013 19.575L33.3346 14.9453V27.94C33.3346 29.8338 32.2646 31.5652 30.5706 32.4122L23.904 35.7455C22.6923 36.3513 21.3561 36.6668 20.0013 36.6668C18.6465 36.6668 17.3103 36.3513 16.0986 35.7455L9.4319 32.4122C7.73799 31.5652 6.66797 29.8338 6.66797 27.94V23.5767L19.08 29.7827C19.3661 29.9257 19.6815 30.0002 20.0013 30.0002C20.3211 30.0002 20.6366 29.9257 20.9226 29.7827L24.08 28.204C24.6446 27.9217 25.0013 27.3445 25.0013 26.7133V19.575Z" fill="#E9F4FE"/>
<path fill-rule="evenodd" clip-rule="evenodd" d="M8.33464 16.1113C9.2551 16.1113 10.0013 16.8576 10.0013 17.7779V27.9401C10.0013 28.5714 10.358 29.1484 10.9226 29.4307L17.5893 32.7641C18.3381 33.1386 19.164 33.3336 20.0013 33.3336C20.8386 33.3336 21.6645 33.1386 22.4133 32.7641L29.08 29.4307C29.6446 29.1484 30.0013 28.5714 30.0013 27.9401V17.7779C30.0013 16.8576 30.7475 16.1113 31.668 16.1113C32.5885 16.1113 33.3346 16.8576 33.3346 17.7779V27.9401C33.3346 29.8339 32.2646 31.5652 30.5706 32.4122L23.904 35.7456C22.6923 36.3514 21.3561 36.6669 20.0013 36.6669C18.6465 36.6669 17.3103 36.3514 16.0986 35.7456L9.4319 32.4122C7.73799 31.5652 6.66797 29.8339 6.66797 27.9401V17.7779C6.66797 16.8576 7.41417 16.1113 8.33464 16.1113Z" fill="#2196F3"/>
<path fill-rule="evenodd" clip-rule="evenodd" d="M16.0683 4.35265C17.2715 3.68425 18.625 3.3335 20.0013 3.3335C21.3776 3.3335 22.7311 3.68425 23.9343 4.35265L36.749 11.4719C37.7276 12.0156 38.3346 13.0472 38.3346 14.1668C38.3346 15.2864 37.7276 16.3181 36.749 16.8618L23.9343 23.981C22.7311 24.6493 21.3776 25.0002 20.0013 25.0002C18.625 25.0002 17.2715 24.6493 16.0683 23.981L3.2537 16.8618C2.27497 16.3181 1.66797 15.2864 1.66797 14.1668C1.66797 13.0472 2.27497 12.0156 3.2537 11.4719L16.0683 4.35265ZM20.0015 6.66683C19.1916 6.66683 18.3951 6.87321 17.6871 7.2665L5.2666 14.1668L17.6871 21.0672C18.3951 21.4605 19.1916 21.6668 20.0015 21.6668C20.8111 21.6668 21.6076 21.4605 22.3156 21.0672L34.7361 14.1668L22.3156 7.2665C21.6076 6.87321 20.8111 6.66683 20.0015 6.66683Z" fill="#0B79D0"/>
</svg>
