<svg width="20" height="20" viewBox="0 0 20 20" fill="none" xmlns="http://www.w3.org/2000/svg">
<path d="M2.2 11.8382H3.2V19H1V13.0318C1.00111 12.7145 1.1281 12.4106 1.35309 12.1868C1.57807 11.963 1.88267 11.8376 2.2 11.8382ZM17.8 11.8382H16.8V19H19V13.0318C18.9989 12.7145 18.8719 12.4106 18.6469 12.1868C18.4219 11.963 18.1173 11.8376 17.8 11.8382ZM10.4 4.8952L16 9.8686V19H11.2V15.22C11.2 14.9017 11.0736 14.5965 10.8485 14.3715C10.6235 14.1464 10.3183 14.02 10 14.02C9.68174 14.02 9.37652 14.1464 9.15147 14.3715C8.92643 14.5965 8.8 14.9017 8.8 15.22V19H4V9.8686L9.6 4.8952V1L10.084 1.1034C10.688 1.2348 11.304 1.167 11.958 1.0974C12.644 1.0238 13.354 0.9482 14.084 1.1034L14.4 1.173V4.373L13.916 4.2696C13.312 4.1384 12.696 4.204 12.042 4.2756C11.4982 4.35215 10.9481 4.37372 10.4 4.34V4.8952ZM10 8.8542C9.7642 8.85546 9.53407 8.92654 9.33862 9.05846C9.14318 9.19038 8.99119 9.37724 8.90183 9.59545C8.81247 9.81366 8.78974 10.0534 8.83652 10.2846C8.8833 10.5157 8.99748 10.7278 9.16466 10.894C9.33184 11.0603 9.54453 11.1734 9.77588 11.2189C10.0072 11.2645 10.2469 11.2404 10.4646 11.1499C10.6824 11.0594 10.8684 10.9064 10.9993 10.7103C11.1302 10.5141 11.2 10.2836 11.2 10.0478C11.1989 9.73047 11.0719 9.42655 10.8469 9.20276C10.6219 8.97898 10.3173 8.85362 10 8.8542Z" fill="#6A798F"/>
</svg>
